<svg width="23" height="20" viewBox="0 0 23 20" fill="none" xmlns="http://www.w3.org/2000/svg">
<path d="M11.5 0.285156C5.14933 0.285156 0 4.59731 0 9.91548C0 15.2337 5.14933 19.5458 11.5 19.5458C17.8507 19.5458 23 15.2337 23 9.91548C23 4.59731 17.8507 0.285156 11.5 0.285156ZM15.7458 13.5741L14.0516 13.5677L11.5 11.0204L8.951 13.5655L7.25424 13.572C7.14129 13.572 7.04888 13.4968 7.04888 13.4C7.04888 13.3592 7.06685 13.3205 7.09766 13.2882L10.4373 9.95632L7.09766 6.62655C7.06664 6.59505 7.04943 6.5556 7.04888 6.51477C7.04888 6.42019 7.14129 6.3428 7.25424 6.3428L8.951 6.34925L11.5 8.89656L14.049 6.3514L15.7432 6.34495C15.8561 6.34495 15.9485 6.42019 15.9485 6.51692C15.9485 6.55776 15.9306 6.59646 15.8998 6.6287L12.5653 9.95847L15.9023 13.2904C15.9331 13.3226 15.9511 13.3613 15.9511 13.4022C15.9511 13.4968 15.8587 13.5741 15.7458 13.5741Z" fill="white"/>
</svg>
