<svg width="44" height="44" viewBox="0 0 44 44" fill="none" xmlns="http://www.w3.org/2000/svg">
<circle cx="22" cy="22" r="22" fill="white"/>
<path d="M12.6667 33.9701H31.3333C32.0406 33.9701 32.7189 33.6879 33.219 33.1855C33.719 32.6831 34 32.0017 34 31.2912V16.5572C34 16.202 33.8595 15.8613 33.6095 15.6101C33.3594 15.3589 33.0203 15.2178 32.6667 15.2178H28.6667V14.177C28.6667 10.6824 26.1293 7.55339 22.6667 7.21451C21.7398 7.12197 20.804 7.22536 19.9193 7.51803C19.0346 7.8107 18.2208 8.28617 17.53 8.91384C16.8393 9.54152 16.287 10.3075 15.9087 11.1625C15.5303 12.0175 15.3343 12.9426 15.3333 13.8783V15.2178H11.3333C10.9797 15.2178 10.6406 15.3589 10.3905 15.6101C10.1405 15.8613 10 16.202 10 16.5572V31.2912C10 32.0017 10.281 32.6831 10.781 33.1855C11.2811 33.6879 11.9594 33.9701 12.6667 33.9701ZM28.6667 17.8967V20.5756H26V17.8967H28.6667ZM18 13.8783C18 11.6628 19.7947 9.85994 22 9.85994C24.2053 9.85994 26 11.6628 26 13.8783V15.2178H18V13.8783ZM15.3333 17.8967H18V20.5756H15.3333V17.8967Z" fill="#1C1C1C"/>
</svg>
